<svg width="237" height="140" viewBox="0 0 237 140" fill="none" xmlns="http://www.w3.org/2000/svg">
<rect x="0.5" y="0.5" width="236" height="139" fill="#F4F3FA"/>
<rect x="0.5" y="0.5" width="236" height="139" stroke="#333333" stroke-dasharray="2 2"/>
<path d="M127.5 53V57C127.5 57.5304 127.289 58.0391 126.914 58.4142C126.539 58.7893 126.03 59 125.5 59H111.5C110.97 59 110.461 58.7893 110.086 58.4142C109.711 58.0391 109.5 57.5304 109.5 57V53" stroke="#333333" stroke-width="1.5" stroke-linecap="round" stroke-linejoin="round"/>
<path d="M123.5 46L118.5 41L113.5 46" stroke="#333333" stroke-width="1.5" stroke-linecap="round" stroke-linejoin="round"/>
<path d="M118.5 41V53" stroke="#333333" stroke-width="1.5" stroke-linecap="round" stroke-linejoin="round"/>
<path d="M41.372 102.144C39.868 102.144 38.716 101.749 37.916 100.96C37.1267 100.171 36.732 99.0027 36.732 97.456V90.72H38.396V97.424C38.396 98.5227 38.6467 99.344 39.148 99.888C39.66 100.432 40.4013 100.704 41.372 100.704C42.3533 100.704 43.0947 100.432 43.596 99.888C44.0973 99.344 44.348 98.5227 44.348 97.424V90.72H45.98V97.456C45.98 99.0027 45.5907 100.171 44.812 100.96C44.0333 101.749 42.8867 102.144 41.372 102.144ZM48.3704 104.88V94.192H49.9544V95.952H49.7784C49.949 95.376 50.285 94.9173 50.7864 94.576C51.2877 94.224 51.8797 94.048 52.5624 94.048C53.2557 94.048 53.8584 94.2133 54.3704 94.544C54.893 94.8747 55.293 95.3387 55.5704 95.936C55.8584 96.5333 56.0024 97.2533 56.0024 98.096C56.0024 98.9173 55.8584 99.6373 55.5704 100.256C55.293 100.864 54.8984 101.333 54.3864 101.664C53.8744 101.984 53.2664 102.144 52.5624 102.144C51.8904 102.144 51.3037 101.973 50.8024 101.632C50.301 101.291 49.965 100.837 49.7944 100.272H49.9864V104.88H48.3704ZM52.1624 100.896C52.8344 100.896 53.3677 100.656 53.7624 100.176C54.1677 99.696 54.3704 99.0027 54.3704 98.096C54.3704 97.1787 54.1677 96.4853 53.7624 96.016C53.3677 95.5467 52.8344 95.312 52.1624 95.312C51.501 95.312 50.9677 95.5467 50.5624 96.016C50.157 96.4853 49.9544 97.1787 49.9544 98.096C49.9544 99.0027 50.157 99.696 50.5624 100.176C50.9677 100.656 51.501 100.896 52.1624 100.896ZM60.3675 102.144C59.5142 102.144 58.8742 101.904 58.4475 101.424C58.0315 100.933 57.8235 100.229 57.8235 99.312V90.72H59.4395V99.216C59.4395 99.5573 59.4875 99.8507 59.5835 100.096C59.6795 100.331 59.8235 100.507 60.0155 100.624C60.2075 100.741 60.4475 100.8 60.7355 100.8C60.8635 100.8 60.9862 100.795 61.1035 100.784C61.2208 100.773 61.3328 100.752 61.4395 100.72L61.4075 102.016C61.2262 102.059 61.0502 102.091 60.8795 102.112C60.7088 102.133 60.5382 102.144 60.3675 102.144ZM66.028 102.144C65.2387 102.144 64.556 101.979 63.98 101.648C63.4147 101.317 62.972 100.848 62.652 100.24C62.332 99.632 62.172 98.9173 62.172 98.096C62.172 97.264 62.332 96.5493 62.652 95.952C62.972 95.344 63.4147 94.8747 63.98 94.544C64.556 94.2133 65.2387 94.048 66.028 94.048C66.8067 94.048 67.4787 94.2133 68.044 94.544C68.62 94.8747 69.068 95.344 69.388 95.952C69.708 96.56 69.868 97.2747 69.868 98.096C69.868 98.9173 69.708 99.632 69.388 100.24C69.068 100.848 68.62 101.317 68.044 101.648C67.4787 101.979 66.8067 102.144 66.028 102.144ZM66.012 100.896C66.684 100.896 67.2227 100.656 67.628 100.176C68.0333 99.696 68.236 99.0027 68.236 98.096C68.236 97.1787 68.0333 96.4853 67.628 96.016C67.2227 95.5467 66.684 95.312 66.012 95.312C65.3507 95.312 64.8173 95.5467 64.412 96.016C64.0067 96.4853 63.804 97.1787 63.804 98.096C63.804 99.0027 64.0067 99.696 64.412 100.176C64.8173 100.656 65.3507 100.896 66.012 100.896ZM74.1789 102.144C73.6349 102.144 73.1442 102.037 72.7069 101.824C72.2802 101.611 71.9442 101.323 71.6989 100.96C71.4535 100.597 71.3309 100.187 71.3309 99.728C71.3309 99.152 71.4749 98.6987 71.7629 98.368C72.0615 98.0267 72.5469 97.7867 73.2189 97.648C73.9015 97.4987 74.8189 97.424 75.9709 97.424H76.7229V98.416H75.9869C75.4109 98.416 74.9255 98.4373 74.5309 98.48C74.1362 98.5227 73.8215 98.592 73.5869 98.688C73.3522 98.7733 73.1815 98.896 73.0749 99.056C72.9789 99.216 72.9309 99.408 72.9309 99.632C72.9309 100.037 73.0695 100.368 73.3469 100.624C73.6242 100.869 74.0082 100.992 74.4989 100.992C74.8935 100.992 75.2402 100.901 75.5389 100.72C75.8375 100.528 76.0722 100.272 76.2429 99.952C76.4242 99.632 76.5149 99.264 76.5149 98.848V97.008C76.5149 96.4 76.3869 95.9627 76.1309 95.696C75.8749 95.4293 75.4535 95.296 74.8669 95.296C74.4189 95.296 73.9709 95.3653 73.5229 95.504C73.0749 95.632 72.6162 95.84 72.1469 96.128L71.6509 94.992C71.9282 94.8 72.2482 94.6347 72.6109 94.496C72.9735 94.3573 73.3522 94.2507 73.7469 94.176C74.1522 94.0907 74.5415 94.048 74.9149 94.048C75.6295 94.048 76.2162 94.16 76.6749 94.384C77.1442 94.608 77.4909 94.9493 77.7149 95.408C77.9389 95.8667 78.0509 96.4587 78.0509 97.184V102H76.5309V100.256H76.6749C76.5895 100.651 76.4295 100.992 76.1949 101.28C75.9709 101.557 75.6882 101.771 75.3469 101.92C75.0055 102.069 74.6162 102.144 74.1789 102.144ZM83.2526 102.144C82.57 102.144 81.9673 101.984 81.4446 101.664C80.9326 101.333 80.5326 100.864 80.2446 100.256C79.9566 99.6373 79.8126 98.9173 79.8126 98.096C79.8126 97.2533 79.9566 96.5333 80.2446 95.936C80.5326 95.3387 80.9326 94.8747 81.4446 94.544C81.9673 94.2133 82.57 94.048 83.2526 94.048C83.9353 94.048 84.522 94.2187 85.0126 94.56C85.514 94.8907 85.85 95.3387 86.0206 95.904H85.8446V90.72H87.4606V102H85.8766V100.24H86.0366C85.866 100.816 85.53 101.28 85.0286 101.632C84.538 101.973 83.946 102.144 83.2526 102.144ZM83.6686 100.896C84.33 100.896 84.8633 100.656 85.2686 100.176C85.674 99.696 85.8766 99.0027 85.8766 98.096C85.8766 97.1787 85.674 96.4853 85.2686 96.016C84.8633 95.5467 84.33 95.312 83.6686 95.312C82.9966 95.312 82.458 95.5467 82.0526 96.016C81.6473 96.4853 81.4446 97.1787 81.4446 98.096C81.4446 99.0027 81.6473 99.696 82.0526 100.176C82.458 100.656 82.9966 100.896 83.6686 100.896ZM94.7329 104.88L96.2689 101.456V102.144L92.8609 94.192H94.5889L97.2129 100.672H96.7649L99.4209 94.192H101.085L96.4289 104.88H94.7329ZM105.497 102.144C104.707 102.144 104.025 101.979 103.449 101.648C102.883 101.317 102.441 100.848 102.121 100.24C101.801 99.632 101.641 98.9173 101.641 98.096C101.641 97.264 101.801 96.5493 102.121 95.952C102.441 95.344 102.883 94.8747 103.449 94.544C104.025 94.2133 104.707 94.048 105.497 94.048C106.275 94.048 106.947 94.2133 107.513 94.544C108.089 94.8747 108.537 95.344 108.857 95.952C109.177 96.56 109.337 97.2747 109.337 98.096C109.337 98.9173 109.177 99.632 108.857 100.24C108.537 100.848 108.089 101.317 107.513 101.648C106.947 101.979 106.275 102.144 105.497 102.144ZM105.481 100.896C106.153 100.896 106.691 100.656 107.097 100.176C107.502 99.696 107.705 99.0027 107.705 98.096C107.705 97.1787 107.502 96.4853 107.097 96.016C106.691 95.5467 106.153 95.312 105.481 95.312C104.819 95.312 104.286 95.5467 103.881 96.016C103.475 96.4853 103.273 97.1787 103.273 98.096C103.273 99.0027 103.475 99.696 103.881 100.176C104.286 100.656 104.819 100.896 105.481 100.896ZM113.936 102.144C113.306 102.144 112.778 102.027 112.352 101.792C111.936 101.557 111.621 101.211 111.408 100.752C111.205 100.283 111.104 99.696 111.104 98.992V94.192H112.72V99.008C112.72 99.424 112.773 99.7707 112.88 100.048C112.997 100.325 113.173 100.528 113.408 100.656C113.653 100.784 113.957 100.848 114.32 100.848C114.725 100.848 115.082 100.757 115.392 100.576C115.701 100.395 115.941 100.133 116.112 99.792C116.282 99.4507 116.368 99.056 116.368 98.608V94.192H117.984V102H116.416V100.288H116.624C116.41 100.885 116.069 101.344 115.6 101.664C115.13 101.984 114.576 102.144 113.936 102.144ZM120.261 102V94.192H121.829V96.064H121.669C121.84 95.424 122.144 94.9387 122.581 94.608C123.029 94.2773 123.621 94.0853 124.357 94.032L124.885 94L124.997 95.376L124.021 95.472C123.328 95.536 122.8 95.7547 122.437 96.128C122.074 96.5013 121.893 97.0133 121.893 97.664V102H120.261ZM133.761 102.144C132.79 102.144 132.06 101.893 131.569 101.392C131.089 100.891 130.849 100.165 130.849 99.216V95.44H129.329V94.192H130.849V91.84H132.465V94.192H134.881V95.44H132.465V99.088C132.465 99.6533 132.582 100.08 132.817 100.368C133.062 100.656 133.457 100.8 134.001 100.8C134.161 100.8 134.321 100.779 134.481 100.736C134.652 100.693 134.817 100.651 134.977 100.608L135.233 101.824C135.073 101.92 134.849 101.995 134.561 102.048C134.284 102.112 134.017 102.144 133.761 102.144ZM139.863 102.144C139.009 102.144 138.273 101.984 137.655 101.664C137.047 101.333 136.572 100.869 136.231 100.272C135.9 99.664 135.735 98.944 135.735 98.112C135.735 97.3013 135.9 96.592 136.231 95.984C136.561 95.376 137.015 94.9013 137.591 94.56C138.167 94.2187 138.823 94.048 139.559 94.048C140.284 94.048 140.903 94.208 141.415 94.528C141.937 94.8373 142.337 95.28 142.615 95.856C142.892 96.432 143.031 97.12 143.031 97.92V98.464H137.015V97.472H141.943L141.671 97.696C141.671 96.896 141.495 96.2773 141.143 95.84C140.791 95.4027 140.284 95.184 139.623 95.184C139.121 95.184 138.695 95.3013 138.343 95.536C138.001 95.7707 137.74 96.096 137.559 96.512C137.377 96.928 137.287 97.4133 137.287 97.968V98.064C137.287 98.6827 137.383 99.2053 137.575 99.632C137.777 100.048 138.071 100.363 138.455 100.576C138.839 100.789 139.313 100.896 139.879 100.896C140.327 100.896 140.764 100.827 141.191 100.688C141.628 100.539 142.039 100.309 142.423 100L142.903 101.12C142.551 101.44 142.097 101.691 141.543 101.872C140.988 102.053 140.428 102.144 139.863 102.144ZM144.824 102V94.192H146.392V95.856H146.216C146.355 95.472 146.547 95.1467 146.792 94.88C147.038 94.6133 147.331 94.4107 147.672 94.272C148.024 94.1227 148.408 94.048 148.824 94.048C149.475 94.048 150.003 94.2027 150.408 94.512C150.814 94.8213 151.091 95.296 151.24 95.936H151.016C151.219 95.3493 151.566 94.8907 152.056 94.56C152.547 94.2187 153.118 94.048 153.768 94.048C154.366 94.048 154.856 94.1653 155.24 94.4C155.624 94.624 155.912 94.9707 156.104 95.44C156.296 95.8987 156.392 96.48 156.392 97.184V102H154.776V97.264C154.776 96.6027 154.659 96.1173 154.424 95.808C154.2 95.4987 153.827 95.344 153.304 95.344C152.92 95.344 152.584 95.4347 152.296 95.616C152.008 95.7973 151.784 96.064 151.624 96.416C151.475 96.7573 151.4 97.1627 151.4 97.632V102H149.784V97.264C149.784 96.6027 149.672 96.1173 149.448 95.808C149.224 95.4987 148.851 95.344 148.328 95.344C147.934 95.344 147.592 95.4347 147.304 95.616C147.027 95.7973 146.814 96.064 146.664 96.416C146.515 96.7573 146.44 97.1627 146.44 97.632V102H144.824ZM158.652 104.88V94.192H160.236V95.952H160.06C160.23 95.376 160.566 94.9173 161.068 94.576C161.569 94.224 162.161 94.048 162.844 94.048C163.537 94.048 164.14 94.2133 164.652 94.544C165.174 94.8747 165.574 95.3387 165.852 95.936C166.14 96.5333 166.284 97.2533 166.284 98.096C166.284 98.9173 166.14 99.6373 165.852 100.256C165.574 100.864 165.18 101.333 164.668 101.664C164.156 101.984 163.548 102.144 162.844 102.144C162.172 102.144 161.585 101.973 161.084 101.632C160.582 101.291 160.246 100.837 160.076 100.272H160.268V104.88H158.652ZM162.444 100.896C163.116 100.896 163.649 100.656 164.044 100.176C164.449 99.696 164.652 99.0027 164.652 98.096C164.652 97.1787 164.449 96.4853 164.044 96.016C163.649 95.5467 163.116 95.312 162.444 95.312C161.782 95.312 161.249 95.5467 160.844 96.016C160.438 96.4853 160.236 97.1787 160.236 98.096C160.236 99.0027 160.438 99.696 160.844 100.176C161.249 100.656 161.782 100.896 162.444 100.896ZM170.649 102.144C169.795 102.144 169.155 101.904 168.729 101.424C168.313 100.933 168.105 100.229 168.105 99.312V90.72H169.721V99.216C169.721 99.5573 169.769 99.8507 169.865 100.096C169.961 100.331 170.105 100.507 170.297 100.624C170.489 100.741 170.729 100.8 171.017 100.8C171.145 100.8 171.267 100.795 171.385 100.784C171.502 100.773 171.614 100.752 171.721 100.72L171.689 102.016C171.507 102.059 171.331 102.091 171.161 102.112C170.99 102.133 170.819 102.144 170.649 102.144ZM175.491 102.144C174.947 102.144 174.457 102.037 174.019 101.824C173.593 101.611 173.257 101.323 173.011 100.96C172.766 100.597 172.643 100.187 172.643 99.728C172.643 99.152 172.787 98.6987 173.075 98.368C173.374 98.0267 173.859 97.7867 174.531 97.648C175.214 97.4987 176.131 97.424 177.283 97.424H178.035V98.416H177.299C176.723 98.416 176.238 98.4373 175.843 98.48C175.449 98.5227 175.134 98.592 174.899 98.688C174.665 98.7733 174.494 98.896 174.387 99.056C174.291 99.216 174.243 99.408 174.243 99.632C174.243 100.037 174.382 100.368 174.659 100.624C174.937 100.869 175.321 100.992 175.811 100.992C176.206 100.992 176.553 100.901 176.851 100.72C177.15 100.528 177.385 100.272 177.555 99.952C177.737 99.632 177.827 99.264 177.827 98.848V97.008C177.827 96.4 177.699 95.9627 177.443 95.696C177.187 95.4293 176.766 95.296 176.179 95.296C175.731 95.296 175.283 95.3653 174.835 95.504C174.387 95.632 173.929 95.84 173.459 96.128L172.963 94.992C173.241 94.8 173.561 94.6347 173.923 94.496C174.286 94.3573 174.665 94.2507 175.059 94.176C175.465 94.0907 175.854 94.048 176.227 94.048C176.942 94.048 177.529 94.16 177.987 94.384C178.457 94.608 178.803 94.9493 179.027 95.408C179.251 95.8667 179.363 96.4587 179.363 97.184V102H177.843V100.256H177.987C177.902 100.651 177.742 100.992 177.507 101.28C177.283 101.557 177.001 101.771 176.659 101.92C176.318 102.069 175.929 102.144 175.491 102.144ZM184.917 102.144C183.946 102.144 183.216 101.893 182.725 101.392C182.245 100.891 182.005 100.165 182.005 99.216V95.44H180.485V94.192H182.005V91.84H183.621V94.192H186.037V95.44H183.621V99.088C183.621 99.6533 183.738 100.08 183.973 100.368C184.218 100.656 184.613 100.8 185.157 100.8C185.317 100.8 185.477 100.779 185.637 100.736C185.808 100.693 185.973 100.651 186.133 100.608L186.389 101.824C186.229 101.92 186.005 101.995 185.717 102.048C185.44 102.112 185.173 102.144 184.917 102.144ZM191.019 102.144C190.165 102.144 189.429 101.984 188.811 101.664C188.203 101.333 187.728 100.869 187.387 100.272C187.056 99.664 186.891 98.944 186.891 98.112C186.891 97.3013 187.056 96.592 187.387 95.984C187.717 95.376 188.171 94.9013 188.747 94.56C189.323 94.2187 189.979 94.048 190.715 94.048C191.44 94.048 192.059 94.208 192.571 94.528C193.093 94.8373 193.493 95.28 193.771 95.856C194.048 96.432 194.187 97.12 194.187 97.92V98.464H188.171V97.472H193.099L192.827 97.696C192.827 96.896 192.651 96.2773 192.299 95.84C191.947 95.4027 191.44 95.184 190.779 95.184C190.277 95.184 189.851 95.3013 189.499 95.536C189.157 95.7707 188.896 96.096 188.715 96.512C188.533 96.928 188.443 97.4133 188.443 97.968V98.064C188.443 98.6827 188.539 99.2053 188.731 99.632C188.933 100.048 189.227 100.363 189.611 100.576C189.995 100.789 190.469 100.896 191.035 100.896C191.483 100.896 191.92 100.827 192.347 100.688C192.784 100.539 193.195 100.309 193.579 100L194.059 101.12C193.707 101.44 193.253 101.691 192.699 101.872C192.144 102.053 191.584 102.144 191.019 102.144Z" fill="#333333"/>
</svg>
